<?xml version="1.0" standalone="no"?>
<!DOCTYPE svg PUBLIC "-//W3C//DTD SVG 20010904//EN"
 "http://www.w3.org/TR/2001/REC-SVG-20010904/DTD/svg10.dtd">
<svg version="1.0" xmlns="http://www.w3.org/2000/svg"
 width="1425.000000pt" height="1425.000000pt" viewBox="0 0 1425.000000 1425.000000"
 preserveAspectRatio="xMidYMid meet">
<metadata>
Created by potrace 1.11, written by Peter Selinger 2001-2013
</metadata>
<g transform="translate(0.000000,1425.000000) scale(0.100000,-0.100000)"
fill="#000000" stroke="none">
<path d="M8739 14198 c-1 -29 -2 -78 -4 -108 -1 -30 -5 -136 -9 -235 -4 -99
-9 -216 -11 -260 -5 -117 -14 -330 -20 -490 -3 -77 -8 -180 -10 -230 -3 -49
-7 -162 -11 -250 -3 -88 -7 -187 -9 -220 -2 -33 -4 -85 -4 -116 l-1 -57 -37 9
c-70 17 -327 68 -398 79 -38 6 -80 13 -92 15 -13 2 -67 9 -120 15 -54 6 -115
13 -136 15 -216 26 -685 26 -972 0 -77 -7 -365 -45 -385 -50 -8 -2 -31 -7 -50
-10 -316 -52 -694 -161 -1035 -297 -162 -64 -570 -263 -674 -328 -34 -22 -65
-40 -67 -40 -7 0 -224 -141 -314 -204 -299 -210 -566 -442 -835 -727 -68 -72
-96 -104 -180 -204 -22 -27 -54 -64 -70 -84 -17 -20 -58 -72 -90 -116 -33 -44
-64 -84 -68 -90 -63 -79 -234 -345 -323 -501 -230 -405 -437 -919 -529 -1312
-3 -9 -16 -64 -30 -122 -25 -107 -73 -358 -80 -427 -2 -21 -6 -51 -9 -68 -3
-16 -8 -59 -12 -95 -3 -36 -8 -78 -10 -95 -25 -228 -25 -866 0 -1025 3 -14 7
-54 11 -90 8 -81 10 -100 41 -285 32 -197 33 -205 44 -240 6 -24 31 -132 46
-200 20 -99 137 -457 204 -625 209 -528 543 -1088 876 -1470 12 -14 55 -63 95
-109 163 -188 444 -454 659 -625 47 -37 93 -74 103 -82 43 -35 268 -190 375
-258 299 -188 659 -366 979 -482 122 -44 268 -94 311 -105 17 -5 49 -14 70
-19 20 -6 44 -12 52 -14 8 -2 49 -13 90 -24 41 -12 86 -23 100 -25 14 -3 43
-10 65 -15 22 -6 54 -13 70 -16 17 -3 95 -16 175 -30 163 -28 186 -31 285 -42
39 -4 73 -9 78 -10 4 -1 11 -2 15 -3 4 0 8 -11 9 -23 0 -29 13 -367 18 -473 2
-44 6 -145 9 -225 13 -321 17 -399 21 -495 2 -55 7 -172 11 -260 7 -184 11
-282 13 -308 1 -10 6 -17 13 -15 7 3 13 27 14 59 2 64 13 363 19 499 2 52 7
163 10 245 5 139 9 230 20 475 2 52 7 174 11 270 3 96 7 188 8 204 l1 29 350
2 c193 2 361 5 375 8 14 3 59 8 100 11 41 4 89 8 105 10 17 3 53 7 80 10 47 6
70 9 140 21 17 3 46 8 65 11 320 48 866 209 1155 338 17 8 55 24 85 37 30 13
109 50 175 82 497 244 957 566 1340 937 165 160 349 360 445 484 8 10 27 33
41 50 25 31 113 147 137 182 7 11 40 57 73 104 67 94 202 313 267 433 37 66
40 78 26 84 -9 3 -19 2 -23 -3 -3 -6 -26 -39 -50 -74 -177 -258 -428 -542
-678 -768 -83 -74 -278 -232 -321 -259 -15 -10 -33 -24 -41 -31 -24 -23 -259
-175 -365 -236 -134 -77 -314 -167 -481 -241 -309 -136 -831 -282 -1110 -311
-22 -2 -50 -7 -63 -9 -12 -3 -48 -8 -80 -11 -31 -3 -73 -7 -92 -9 -180 -22
-711 -22 -840 0 -14 2 -50 6 -80 9 -89 10 -139 17 -235 32 -143 24 -147 25
-215 40 -36 9 -76 18 -90 20 -69 13 -146 37 -152 47 -4 7 -5 25 -3 42 2 16 7
111 10 210 3 99 8 214 10 255 2 41 7 147 10 235 3 88 8 212 10 275 3 63 7 167
10 230 2 63 7 176 10 250 3 74 8 175 10 223 2 49 5 90 7 92 1 1 59 6 128 10
69 3 143 8 165 10 36 3 133 11 270 20 28 2 98 7 156 10 l106 6 20 -73 c11 -40
73 -290 139 -555 l119 -483 283 0 c155 0 282 4 282 8 0 5 75 8 168 7 92 -1
172 1 179 3 8 3 11 31 8 100 -2 54 -7 158 -10 232 -3 74 -7 180 -10 235 -3 55
-7 165 -10 245 -3 80 -8 195 -10 256 l-5 111 52 2 c29 2 69 4 88 5 19 2 82 6
140 10 58 4 121 9 140 11 19 2 78 7 130 10 52 3 120 8 150 10 30 2 96 7 145
10 50 4 107 8 128 10 29 3 37 1 38 -13 4 -70 13 -170 24 -272 5 -43 8 -72 20
-220 3 -36 8 -81 10 -100 2 -19 7 -69 10 -110 3 -41 8 -91 10 -110 2 -19 7
-71 10 -115 4 -44 8 -96 10 -115 2 -19 7 -71 10 -115 4 -44 8 -81 9 -83 9 -8
35 12 34 26 -1 19 11 173 17 212 2 14 6 59 10 100 3 41 8 98 11 125 8 83 13
144 24 265 6 63 13 139 15 168 10 102 15 158 21 222 3 36 7 84 9 108 1 24 4
45 6 47 2 1 51 6 109 9 115 7 261 17 300 21 14 2 44 3 68 4 28 1 45 6 49 16 3
9 4 18 1 20 -2 2 -40 7 -83 10 -44 3 -107 7 -140 10 -33 3 -98 7 -145 10 -47
3 -94 7 -105 9 -11 3 -26 5 -33 5 -9 1 -12 15 -8 54 3 28 10 108 16 177 6 69
12 145 15 170 2 25 7 74 10 110 3 36 8 81 10 100 2 19 7 71 11 115 4 44 8 94
10 110 1 17 6 68 9 114 4 46 8 92 10 101 2 9 6 54 10 101 3 46 8 100 10 119 2
19 6 69 10 110 3 41 8 91 10 110 2 19 7 69 10 110 3 41 8 91 10 110 3 19 7 67
10 105 3 39 10 120 16 180 6 61 12 137 15 170 2 33 6 74 8 90 3 17 8 71 11
120 4 50 8 100 10 113 2 12 7 64 11 115 4 50 8 99 10 107 1 8 3 25 3 38 1 21
4 22 59 17 31 -2 91 -7 132 -10 41 -3 100 -8 130 -10 30 -3 93 -7 140 -10 47
-3 105 -7 130 -10 25 -2 86 -7 135 -10 50 -3 113 -8 140 -10 83 -7 197 -16
260 -20 33 -2 101 -7 150 -11 50 -3 104 -7 120 -8 l30 -1 0 625 c0 411 -3 624
-10 623 -5 0 -53 -4 -105 -7 -52 -4 -115 -9 -140 -11 -25 -2 -88 -7 -140 -11
-52 -4 -111 -8 -130 -9 -19 -2 -78 -6 -130 -9 -52 -4 -115 -8 -140 -11 -25 -2
-85 -7 -135 -10 -49 -4 -112 -8 -140 -11 -159 -13 -268 -16 -263 -8 3 5 9 43
12 84 4 41 9 93 11 115 2 22 6 67 9 100 14 168 19 210 21 213 2 2 26 5 54 7
56 4 71 10 71 29 0 11 -26 15 -108 19 -14 0 -11 50 13 297 4 42 7 69 20 225 3
33 7 76 10 95 2 19 7 76 10 125 4 50 8 101 10 115 2 14 6 54 10 90 3 36 8 85
10 110 2 25 7 79 10 120 4 41 8 91 10 110 l4 36 -660 0 -660 0 7 -96 c3 -52 8
-102 9 -111 2 -9 6 -56 10 -105 3 -49 8 -100 10 -114 2 -14 7 -61 10 -105 4
-44 8 -92 10 -107 2 -14 6 -64 9 -110 4 -46 9 -99 11 -118 3 -19 7 -64 10
-100 3 -36 7 -85 10 -110 3 -25 7 -73 10 -106 l6 -62 -33 3 c-31 3 -96 8 -288
20 -47 4 -107 8 -135 10 -27 3 -86 7 -130 10 -211 15 -197 12 -201 41 -2 9 -5
91 -9 183 -3 91 -8 202 -10 246 -2 44 -6 152 -10 240 -3 88 -8 207 -10 265 -3
58 -7 157 -10 220 -9 236 -16 388 -20 485 -3 55 -7 172 -11 260 -3 88 -7 181
-8 207 -2 44 -1 47 18 43 12 -3 75 -16 141 -30 987 -209 1885 -741 2566 -1522
130 -149 340 -435 439 -598 23 -38 43 -71 45 -73 1 -1 9 0 18 4 14 5 9 21 -33
102 -200 389 -471 784 -758 1102 -78 88 -309 320 -397 401 -218 199 -568 457
-825 608 -41 25 -83 51 -92 59 -10 8 -18 12 -18 8 0 -3 -19 6 -42 20 -58 37
-332 172 -463 229 -152 66 -340 136 -495 185 l-130 42 -1 56 c0 31 -2 80 -4
107 -1 28 -5 131 -9 230 -4 99 -9 223 -11 275 -6 140 -14 327 -20 480 -3 74
-8 176 -10 225 -8 181 -18 432 -20 490 -7 198 -8 205 -22 205 -9 0 -13 -16
-14 -52z m-329 -2492 c234 -22 229 -20 225 -59 -2 -13 -6 -107 -9 -210 -4
-102 -9 -217 -11 -254 -2 -37 -7 -135 -10 -218 -3 -82 -8 -199 -10 -260 -3
-60 -7 -168 -10 -240 -6 -146 -13 -318 -20 -475 -4 -97 -16 -369 -19 -450 l-1
-35 -50 1 c-43 1 -197 10 -315 19 -19 2 -75 6 -125 9 -49 4 -112 8 -140 10
-27 2 -97 7 -155 11 -58 4 -107 9 -109 10 -3 4 -27 112 -40 185 -10 56 -170
857 -177 886 -5 20 -9 20 -465 20 -411 0 -459 -1 -455 -15 29 -101 28 -81 51
-691 3 -80 8 -182 10 -228 l4 -82 -72 5 c-106 8 -193 14 -277 20 -41 3 -102 7
-135 10 -33 3 -96 7 -140 10 -134 9 -227 16 -280 20 -71 6 -245 18 -420 30
-44 2 -107 7 -140 10 -33 2 -98 7 -145 10 -141 9 -204 15 -223 21 -17 5 -18
-26 -15 -729 2 -405 1 -738 -2 -740 -3 -3 -54 -8 -115 -12 -60 -4 -123 -8
-140 -10 -16 -2 -75 -7 -130 -10 -55 -4 -116 -8 -135 -10 -19 -2 -75 -6 -125
-10 -184 -13 -220 -17 -230 -26 -6 -6 -6 -9 0 -10 6 0 19 -2 30 -4 11 -2 61
-7 110 -10 50 -3 110 -8 135 -10 25 -2 86 -7 135 -10 93 -6 139 -10 265 -20
41 -3 101 -7 134 -10 32 -2 61 -7 64 -10 3 -3 5 -843 5 -1866 l-1 -1860 51 6
c29 3 93 8 142 11 115 7 175 11 277 19 46 3 115 8 153 10 39 3 97 7 130 10 33
3 94 7 135 10 185 11 258 16 300 20 25 3 86 7 135 10 50 4 110 8 135 10 25 2
95 7 155 11 179 11 328 22 398 29 20 2 37 0 38 -3 4 -29 8 -114 14 -272 3
-102 8 -216 10 -255 2 -38 6 -142 9 -231 4 -89 9 -215 11 -280 9 -211 14 -325
21 -502 l6 -172 -108 39 c-517 187 -989 458 -1424 819 -239 199 -563 542 -757
802 -81 110 -233 334 -233 346 0 4 -6 15 -14 23 -15 17 -27 38 -117 201 -52
96 -82 158 -162 330 -107 232 -223 584 -286 870 -18 85 -59 302 -66 355 -32
250 -38 349 -39 630 -1 217 7 421 18 482 2 10 7 45 11 78 15 133 16 136 35
245 17 96 21 111 36 179 8 36 19 84 24 107 15 67 79 282 120 399 115 333 277
661 475 965 78 120 243 345 303 413 16 17 65 73 109 122 519 584 1232 1039
1987 1266 178 54 377 103 501 123 114 19 229 36 280 42 33 3 68 8 78 10 10 1
68 6 130 10 62 3 113 7 115 8 5 5 479 -2 542 -8z m1361 -2530 c0 -17 2 -38 4
-46 2 -14 5 -46 20 -200 1 -19 6 -78 10 -130 4 -52 9 -98 11 -102 8 -12 -10
-16 -101 -22 -49 -4 -110 -8 -135 -11 -25 -2 -85 -7 -135 -10 -49 -4 -110 -8
-135 -10 -25 -2 -88 -6 -140 -10 -52 -3 -112 -8 -132 -11 -32 -4 -38 -2 -39
13 0 10 -2 45 -4 78 -1 33 -6 144 -10 248 l-6 187 23 1 c13 0 34 2 48 4 14 1
75 6 135 9 61 4 130 9 155 11 46 4 116 9 295 21 55 3 101 7 103 8 1 2 9 3 17
3 10 0 15 -11 16 -31z m-1245 -160 c-3 -56 -8 -173 -12 -261 -3 -88 -8 -162
-10 -164 -6 -7 -19 -8 -121 -15 -48 -3 -113 -9 -143 -12 -30 -3 -84 -7 -120
-9 -36 -2 -111 -6 -167 -10 -60 -4 -103 -3 -103 2 0 5 -16 87 -36 183 -20 96
-40 198 -45 225 -5 28 -12 62 -15 78 -3 15 -2 28 3 28 20 3 75 7 168 13 55 4
125 9 155 11 127 10 190 15 285 21 55 3 101 7 102 8 2 2 17 3 34 3 l30 0 -5
-101z m-1920 -76 c1 -19 5 -118 9 -220 4 -102 7 -205 8 -229 2 -50 11 -47
-127 -56 -50 -3 -116 -8 -146 -10 -67 -6 -147 -12 -260 -20 -47 -3 -105 -8
-130 -10 -40 -3 -203 -15 -270 -19 l-25 -1 0 269 0 270 25 2 c14 0 72 5 130 9
138 10 157 11 280 19 58 4 125 9 150 11 25 2 90 7 145 10 55 3 101 7 102 9 1
1 26 2 55 1 l52 0 2 -35z m-721 -875 c28 -3 91 -7 140 -10 50 -4 108 -8 130
-10 22 -2 83 -6 135 -10 52 -3 115 -8 140 -10 25 -2 81 -7 125 -10 44 -4 82
-9 84 -11 6 -6 8 -29 15 -229 3 -93 9 -237 12 -319 3 -81 2 -146 -3 -143 -4 2
-35 7 -68 11 -33 3 -71 8 -85 11 -14 2 -47 6 -75 9 -62 6 -129 14 -175 21 -19
3 -53 8 -75 10 -51 6 -191 24 -230 30 -16 2 -70 9 -120 16 -49 6 -99 12 -110
14 -11 1 -29 3 -40 4 -20 1 -20 7 -21 322 l0 320 86 -6 c47 -3 108 -8 135 -10z
m2295 -170 c35 -3 103 -8 150 -11 97 -6 125 -10 139 -19 6 -3 9 -37 6 -78 -4
-73 -13 -275 -20 -472 -4 -109 -14 -331 -20 -475 -2 -41 -6 -154 -10 -250 -3
-96 -8 -204 -10 -240 -4 -58 -16 -392 -18 -463 -2 -70 -11 -30 -111 478 -2 11
-13 67 -25 125 -11 58 -22 112 -25 120 -3 8 -8 32 -11 53 -3 21 -12 73 -21
115 -9 42 -18 88 -21 102 -2 14 -10 56 -18 94 -17 79 -14 85 45 87 19 1 40 2
45 4 6 1 18 3 28 3 27 3 22 42 -5 43 -13 0 -32 2 -43 4 -11 2 -38 6 -60 8
l-40 4 -72 359 c-40 197 -75 374 -78 392 l-5 33 67 -6 c38 -3 97 -7 133 -10z
m1095 -81 c44 -3 98 -7 120 -9 22 -2 81 -6 130 -10 50 -3 113 -8 141 -10 28
-2 91 -7 140 -10 49 -4 90 -8 91 -9 1 -1 4 -28 8 -61 3 -33 8 -87 11 -119 3
-32 7 -75 9 -95 4 -51 15 -168 20 -221 3 -25 7 -74 10 -110 3 -36 8 -85 10
-110 2 -25 6 -74 10 -110 3 -36 7 -81 10 -100 2 -19 7 -75 11 -124 3 -50 7
-97 9 -105 1 -9 6 -52 9 -96 7 -81 11 -126 21 -225 2 -30 7 -80 10 -110 3 -30
7 -77 10 -105 2 -27 7 -86 10 -130 3 -44 8 -96 10 -115 3 -19 7 -62 10 -95 3
-33 8 -78 10 -100 2 -22 7 -76 10 -120 4 -44 8 -96 10 -115 2 -19 6 -69 10
-110 4 -41 8 -91 10 -110 2 -19 7 -68 10 -107 3 -40 8 -82 10 -94 5 -23 2 -23
-260 -4 -22 2 -78 6 -125 9 -82 6 -179 13 -285 21 -27 2 -93 7 -145 10 -111 7
-183 15 -189 20 -2 3 -5 33 -6 67 -4 85 -15 379 -20 508 -3 58 -7 155 -10 215
-2 61 -7 169 -10 240 -3 72 -7 180 -10 240 -6 133 -14 326 -20 495 -8 194 -15
355 -20 470 -3 58 -7 173 -10 255 -4 83 -8 185 -10 229 l-4 78 82 -6 c45 -4
118 -9 162 -12z m-1949 -420 c13 -55 26 -108 28 -119 2 -11 6 -27 8 -35 2 -11
-5 -14 -32 -11 -19 1 -37 5 -39 7 -5 5 -5 50 -1 177 1 48 5 86 7 83 2 -2 15
-48 29 -102z m111 -456 c7 -18 14 -46 17 -61 3 -15 12 -51 20 -80 8 -29 17
-63 20 -77 2 -14 77 -315 166 -670 89 -355 163 -652 165 -660 2 -8 17 -71 34
-139 17 -68 31 -126 31 -128 0 -3 -34 -2 -76 1 -42 3 -113 8 -158 11 -44 3
-103 8 -131 10 -27 3 -99 8 -160 11 -60 4 -116 8 -125 9 -8 2 -21 4 -27 4 -13
1 -13 22 2 361 2 63 7 183 10 265 4 83 8 191 10 240 2 50 7 160 10 245 4 85 8
196 10 245 2 50 7 164 10 255 4 91 9 167 11 169 5 5 70 16 114 19 32 2 37 -1
47 -30z m-746 -91 c0 -23 2 -69 4 -102 1 -33 6 -145 10 -250 4 -104 9 -219 10
-255 2 -36 6 -135 9 -220 4 -85 9 -198 11 -250 2 -52 7 -171 10 -265 4 -93 8
-201 10 -238 l3 -68 -82 7 c-91 8 -107 9 -261 18 -60 4 -123 9 -140 11 -16 2
-77 7 -135 11 -58 3 -125 7 -150 9 -25 2 -90 6 -145 10 -55 3 -109 8 -120 10
-11 2 -29 4 -40 4 -20 1 -20 6 -20 748 0 655 2 746 15 748 8 1 47 6 85 10 39
4 84 9 100 11 17 2 55 6 85 9 30 3 64 7 75 9 11 2 52 7 90 10 39 4 86 9 105
11 76 10 108 14 175 20 39 3 77 8 85 10 8 2 47 7 85 11 39 3 71 7 72 8 1 1 13
2 27 4 24 2 26 -1 27 -41z"/>
</g>
</svg>
